<svg width="40" height="40" viewBox="0 0 40 40" fill="none" xmlns="http://www.w3.org/2000/svg">
<g clip-path="url(#clip0_15_708)">
<path d="M24.0021 28.0076V4.0021C24.0021 1.7361 22.266 0 20 0C17.734 0 15.9979 1.86858 15.9979 4.0021V28.0007C14.3943 29.2001 13.3345 31.201 13.3345 33.3346C13.3345 37.0647 16.2699 40.0001 20 40.0001C23.7302 40.0001 26.6655 37.0647 26.6655 33.3346C26.6655 31.201 25.5988 29.207 24.0021 28.0076ZM20 38.6753C17.0647 38.6753 14.6662 36.2769 14.6662 33.3415C14.6662 31.3405 15.733 29.6113 17.3297 28.6771V4.0021C17.3297 2.53792 18.5289 1.33868 19.9931 1.33868C21.4573 1.33868 22.6564 2.53792 22.6564 4.0021V28.67C24.26 29.6043 25.3199 31.3335 25.3199 33.3345C25.3338 36.2698 22.9353 38.6753 20 38.6753Z" fill="black"/>
<path d="M21.3316 29.6044C21.3316 29.4719 21.3316 29.4719 21.3316 29.3395V22.6739C21.3316 21.8721 20.8018 21.3422 20 21.3422C19.1982 21.3422 18.6683 21.8721 18.6683 22.6739V29.3395C18.6683 29.4718 18.6683 29.4718 18.6683 29.6044C17.0647 30.1413 16.0049 31.6055 16.0049 33.3346C16.0049 35.6006 17.741 37.3367 20.007 37.3367C22.2729 37.3367 24.009 35.6006 24.009 33.3346C24.0021 31.6055 22.9353 30.1413 21.3316 29.6044Z" fill="black"/>
</g>
<defs>
<clipPath id="clip0_15_708">
<rect width="40" height="40" fill="white"/>
</clipPath>
</defs>
</svg>
