<svg width="40" height="40" viewBox="0 0 40 40" fill="none" xmlns="http://www.w3.org/2000/svg">
<path d="M17.5 13.3333C17.5 7.51666 12 3.76666 11.7667 3.61666C11.4911 3.43036 11.166 3.33081 10.8334 3.33081C10.5007 3.33081 10.1756 3.43036 9.90002 3.61666C9.66669 3.78332 4.16669 7.58332 4.16669 13.3333C4.16669 15.1014 4.86907 16.7971 6.11931 18.0474C7.36955 19.2976 9.06524 20 10.8334 20C12.6015 20 14.2972 19.2976 15.5474 18.0474C16.7976 16.7971 17.5 15.1014 17.5 13.3333ZM10.8334 16.6667C9.9493 16.6667 9.10145 16.3155 8.47633 15.6903C7.85121 15.0652 7.50002 14.2174 7.50002 13.3333C7.61424 12.1299 7.96798 10.9614 8.54043 9.89662C9.11288 8.83187 9.89247 7.89235 10.8334 7.13332C11.7778 7.88912 12.5598 8.82785 13.1326 9.89323C13.7054 10.9586 14.0571 12.1287 14.1667 13.3333C14.1667 14.2174 13.8155 15.0652 13.1904 15.6903C12.5653 16.3155 11.7174 16.6667 10.8334 16.6667ZM30.1 3.61666C29.8244 3.43036 29.4994 3.33081 29.1667 3.33081C28.834 3.33081 28.509 3.43036 28.2334 3.61666C28 3.78332 22.5 7.58332 22.5 13.3333C22.5 15.1014 23.2024 16.7971 24.4526 18.0474C25.7029 19.2976 27.3986 20 29.1667 20C30.9348 20 32.6305 19.2976 33.8807 18.0474C35.131 16.7971 35.8334 15.1014 35.8334 13.3333C35.8334 7.51666 30.3334 3.76666 30.1 3.61666V3.61666ZM29.1667 16.6667C28.2826 16.6667 27.4348 16.3155 26.8097 15.6903C26.1845 15.0652 25.8334 14.2174 25.8334 13.3333C25.9476 12.1299 26.3013 10.9614 26.8738 9.89662C27.4462 8.83187 28.2258 7.89235 29.1667 7.13332C30.1111 7.88912 30.8931 8.82785 31.4659 9.89323C32.0387 10.9586 32.3904 12.1287 32.5 13.3333C32.5 14.2174 32.1488 15.0652 31.5237 15.6903C30.8986 16.3155 30.0507 16.6667 29.1667 16.6667ZM21.7667 20.2833C21.4911 20.097 21.166 19.9975 20.8334 19.9975C20.5007 19.9975 20.1756 20.097 19.9 20.2833C19.6667 20.45 14.1667 24.25 14.1667 30C14.1667 31.7681 14.8691 33.4638 16.1193 34.714C17.3696 35.9643 19.0652 36.6667 20.8334 36.6667C22.6015 36.6667 24.2972 35.9643 25.5474 34.714C26.7976 33.4638 27.5 31.7681 27.5 30C27.5 24.1833 22 20.4333 21.7667 20.2833V20.2833ZM20.8334 33.3333C19.9493 33.3333 19.1015 32.9821 18.4763 32.357C17.8512 31.7319 17.5 30.884 17.5 30C17.6142 28.7965 17.968 27.628 18.5404 26.5633C19.1129 25.4985 19.8925 24.559 20.8334 23.8C21.7778 24.5558 22.5598 25.4945 23.1326 26.5599C23.7054 27.6253 24.0571 28.7954 24.1667 30C24.1667 30.884 23.8155 31.7319 23.1904 32.357C22.5653 32.9821 21.7174 33.3333 20.8334 33.3333Z" fill="black"/>
</svg>
