<svg width="40" height="40" viewBox="0 0 40 40" fill="none" xmlns="http://www.w3.org/2000/svg">
<path d="M20 20.0557C14.5013 20.0557 10.0277 24.5292 10.0277 30.0279C10.0277 30.9204 10.7512 31.6437 11.6435 31.6437C12.5359 31.6437 13.2593 30.9204 13.2593 30.0279C13.2593 26.3111 16.2831 23.2872 20 23.2872C23.7169 23.2872 26.7406 26.3111 26.7406 30.0279C26.7406 30.9204 27.464 31.6437 28.3564 31.6437C29.2488 31.6437 29.9722 30.9204 29.9722 30.0279C29.9722 24.5292 25.4987 20.0557 20 20.0557Z" fill="#323232"/>
<path d="M20 1.6709C19.1077 1.6709 18.3842 2.39434 18.3842 3.28668V14.9857C18.3842 15.878 19.1077 16.6014 20 16.6014C20.8924 16.6014 21.6158 15.8781 21.6158 14.9857V3.28668C21.6158 2.39434 20.8924 1.6709 20 1.6709Z" fill="#323232"/>
<path d="M10.5131 18.2556L8.13985 15.8824C7.50892 15.2514 6.48579 15.2514 5.85485 15.8824C5.22384 16.5134 5.22384 17.5364 5.85485 18.1674L8.22806 20.5407C8.54353 20.8563 8.95712 21.014 9.37063 21.014C9.78423 21.014 10.1977 20.8563 10.5131 20.5407C11.1441 19.9097 11.1441 18.8867 10.5131 18.2556Z" fill="#323232"/>
<path d="M4.95836 28.4121H1.61578C0.723437 28.4121 0 29.1355 0 30.0279C0 30.9203 0.723437 31.6437 1.61578 31.6437H4.95836C5.85078 31.6437 6.57414 30.9203 6.57414 30.0279C6.57414 29.1355 5.8507 28.4121 4.95836 28.4121Z" fill="#323232"/>
<path d="M38.3842 28.4121H35.0416C34.1491 28.4121 33.4258 29.1355 33.4258 30.0279C33.4258 30.9203 34.1491 31.6437 35.0416 31.6437H38.3842C39.2766 31.6437 40 30.9203 40 30.0279C40 29.1355 39.2766 28.4121 38.3842 28.4121Z" fill="#323232"/>
<path d="M34.1452 15.8824C33.5142 15.2514 32.4912 15.2514 31.8602 15.8824L29.487 18.2556C28.856 18.8867 28.856 19.9097 29.487 20.5407C29.8024 20.8563 30.216 21.014 30.6295 21.014C31.043 21.014 31.4566 20.8562 31.7721 20.5408L34.1453 18.1675C34.7762 17.5365 34.7762 16.5135 34.1452 15.8824Z" fill="#323232"/>
<path d="M38.3842 35.0967H1.61578C0.723437 35.0967 0 35.82 0 36.7125C0 37.6049 0.723437 38.3282 1.61578 38.3282H38.3842C39.2766 38.3282 40 37.6049 40 36.7125C40 35.82 39.2766 35.0967 38.3842 35.0967Z" fill="#323232"/>
<path d="M27.8278 8.82932L21.1427 2.14416C20.5116 1.51314 19.4886 1.51314 18.8576 2.14416L12.1724 8.82932C11.5414 9.46025 11.5414 10.4833 12.1724 11.1143C12.8034 11.7453 13.8265 11.7453 14.4574 11.1143L20 5.57174L25.5427 11.1144C25.8581 11.4299 26.2717 11.5877 26.6852 11.5877C27.0988 11.5877 27.5123 11.4299 27.8279 11.1144C28.4588 10.4835 28.4588 9.46041 27.8278 8.82932Z" fill="#323232"/>
</svg>
