<svg width="40" height="40" viewBox="0 0 40 40" fill="none" xmlns="http://www.w3.org/2000/svg">
<g clip-path="url(#clip0_6_704)">
<path d="M32.0694 7.01626C31.8437 6.58688 31.3994 6.35813 30.945 6.36501C30.4325 6.35313 29.9406 6.64938 29.7462 7.15751L27.9 12.0356C27.6569 12.68 27.9819 13.3994 28.6262 13.6431C28.7706 13.6988 28.92 13.725 29.0669 13.725C29.5706 13.725 30.045 13.4175 30.2337 12.9188L31.1237 10.5656L33.7325 15.5025C32.8556 15.2175 31.9225 15.0594 30.9525 15.0594C27.1556 15.0594 23.905 17.4231 22.5787 20.7538C20.1875 19.7925 18.3156 20.32 17.375 20.7494C16.0475 17.4213 12.7981 15.0594 9.00186 15.0594C8.01249 15.0594 7.06374 15.225 6.17374 15.52L8.79124 10.565L9.68186 12.9181C9.87061 13.4163 10.3456 13.7244 10.8487 13.7244C10.995 13.7244 11.1444 13.6981 11.2894 13.6425C11.9331 13.3988 12.2581 12.6794 12.015 12.035L10.1687 7.15688C9.97624 6.64938 9.48561 6.35313 8.97311 6.36438C8.51749 6.35626 8.07311 6.58563 7.84561 7.01563L1.33811 19.3338C1.33311 19.3438 1.33436 19.3538 1.32936 19.3631C0.48311 20.7369 -0.0150146 22.3469 -0.0150146 24.0763C-0.0150146 29.0481 4.02936 33.0925 9.00124 33.0925C13.9737 33.0925 18.0181 29.0481 18.0181 24.0763C18.0181 23.7938 18.0012 23.515 17.9756 23.2381C18.0419 23.2069 18.1106 23.1831 18.1725 23.1388C18.1881 23.1294 19.6856 22.125 21.9812 23.21C21.9544 23.4956 21.9375 23.7844 21.9375 24.0763C21.9375 29.0481 25.9819 33.0925 30.9531 33.0925C35.9256 33.0925 39.97 29.0481 39.97 24.0763C39.97 22.1975 39.3906 20.4513 38.4031 19.005L32.0694 7.01626ZM9.00061 30.5981C5.40374 30.5981 2.47811 27.6719 2.47811 24.0756C2.47811 20.4794 5.40374 17.5538 9.00061 17.5538C12.5969 17.5538 15.5231 20.4794 15.5231 24.0756C15.5231 27.6719 12.5969 30.5981 9.00061 30.5981ZM30.9519 30.5981C27.3556 30.5981 24.43 27.6719 24.43 24.0756C24.43 20.4794 27.3556 17.5538 30.9519 17.5538C33.1637 17.5538 35.1144 18.6656 36.295 20.3531L36.3712 20.4988C36.3981 20.5506 36.4369 20.59 36.47 20.6363C37.0975 21.6375 37.4744 22.81 37.4744 24.075C37.475 27.6719 34.5481 30.5981 30.9519 30.5981Z" fill="black"/>
</g>
<defs>
<clipPath id="clip0_6_704">
<rect width="40" height="40" fill="white"/>
</clipPath>
</defs>
</svg>
