<svg width="40" height="40" viewBox="0 0 40 40" fill="none" xmlns="http://www.w3.org/2000/svg">
<path d="M30.996 16C32.296 15.9963 33.5463 16.499 34.4818 17.4016C35.4174 18.3042 35.9646 19.5356 36.0076 20.8349C36.0505 22.1342 35.5857 23.3991 34.7117 24.3614C33.8378 25.3238 32.6234 25.9079 31.326 25.99L30.996 26C30.964 26 30.93 26 30.898 25.996L30.664 26.014H29.18C29.406 26.556 29.528 27.15 29.528 27.772C29.5353 28.398 29.4174 29.0191 29.1813 29.5989C28.9452 30.1786 28.5956 30.7054 28.1531 31.1483C27.7107 31.5911 27.1842 31.9411 26.6046 32.1777C26.025 32.4143 25.404 32.5327 24.778 32.526C22.772 32.526 21.298 31.64 20.518 30.176C20.3398 29.8402 20.2958 29.4493 20.3948 29.0823C20.4937 28.7153 20.7283 28.3996 21.0512 28.1989C21.374 27.9982 21.761 27.9276 22.1339 28.0013C22.5068 28.075 22.8378 28.2876 23.06 28.596L23.26 28.922C23.532 29.31 23.98 29.526 24.78 29.526C25.0119 29.5327 25.2427 29.4918 25.4582 29.4059C25.6737 29.3201 25.8693 29.191 26.0331 29.0267C26.1968 28.8624 26.3252 28.6663 26.4103 28.4506C26.4954 28.2348 26.5355 28.0038 26.528 27.772C26.528 26.892 25.804 26.142 24.84 26.038L24.41 26.014H5.50003C5.11998 26.0139 4.75415 25.8695 4.47645 25.6101C4.19875 25.3506 4.02988 24.9954 4.00398 24.6162C3.97808 24.2371 4.09706 23.8622 4.3369 23.5674C4.57673 23.2726 4.91953 23.0798 5.29603 23.028L5.50003 23.014H30.664L30.76 23.018L30.878 23.004L31.23 22.986C31.5728 22.9449 31.899 22.8158 32.1771 22.6112C32.4551 22.4067 32.6755 22.1336 32.8168 21.8186C32.958 21.5037 33.0153 21.1575 32.9832 20.8138C32.951 20.4701 32.8304 20.1406 32.6332 19.8573C32.4359 19.5741 32.1687 19.3467 31.8575 19.1973C31.5463 19.0479 31.2017 18.9815 30.8573 19.0048C30.5129 19.028 30.1804 19.1399 29.8921 19.3298C29.6038 19.5196 29.3695 19.7808 29.212 20.088L29.032 20.502C28.8548 20.8386 28.5562 21.0952 28.1969 21.22C27.8375 21.3448 27.4442 21.3284 27.0965 21.1741C26.7488 21.0198 26.4727 20.7392 26.324 20.389C26.1754 20.0388 26.1654 19.6453 26.296 19.288C26.6479 18.3242 27.2875 17.4919 28.1282 16.9037C28.9689 16.3156 29.97 16.0001 30.996 16V16ZM18.996 19.99H5.50003C5.11998 19.9899 4.75415 19.8455 4.47645 19.5861C4.19875 19.3266 4.02988 18.9714 4.00398 18.5922C3.97808 18.2131 4.09706 17.8382 4.3369 17.5434C4.57673 17.2486 4.91953 17.0558 5.29603 17.004L5.50003 16.99H18.998C19.7892 16.99 20.5625 16.7554 21.2203 16.3159C21.8781 15.8764 22.3908 15.2516 22.6935 14.5207C22.9963 13.7898 23.0755 12.9856 22.9212 12.2096C22.7668 11.4337 22.3859 10.721 21.8265 10.1616C21.267 9.60216 20.5543 9.2212 19.7784 9.06686C19.0025 8.91252 18.1982 8.99173 17.4673 9.29448C16.7364 9.59723 16.1117 10.1099 15.6722 10.7677C15.2326 11.4255 14.998 12.1989 14.998 12.99C14.998 13.3878 14.84 13.7694 14.5587 14.0507C14.2774 14.332 13.8959 14.49 13.498 14.49C13.1002 14.49 12.7187 14.332 12.4374 14.0507C12.1561 13.7694 11.998 13.3878 11.998 12.99C11.998 11.6426 12.3869 10.3238 13.118 9.19193C13.8491 8.06008 14.8913 7.1633 16.1196 6.60923C17.3478 6.05516 18.7099 5.86735 20.0422 6.06835C21.3746 6.26935 22.6206 6.85061 23.6307 7.74237C24.6409 8.63412 25.3722 9.79846 25.7368 11.0956C26.1015 12.3928 26.084 13.7676 25.6865 15.0551C25.289 16.3425 24.5284 17.4879 23.4959 18.3537C22.4635 19.2195 21.2031 19.7689 19.866 19.936L19.666 19.976L19.46 19.99H5.50003H18.998H18.996Z" fill="black"/>
</svg>
